<?xml version="1.0" standalone="no"?>
<!DOCTYPE svg PUBLIC "-//W3C//DTD SVG 20010904//EN"
 "http://www.w3.org/TR/2001/REC-SVG-20010904/DTD/svg10.dtd">
<svg version="1.0" xmlns="http://www.w3.org/2000/svg"
 width="678.000000pt" height="980.000000pt" viewBox="0 0 678.000000 980.000000"
 preserveAspectRatio="xMidYMid meet">
<metadata>
Created by potrace 1.13, written by Peter Selinger 2001-2015
</metadata>
<g transform="translate(0.000000,980.000000) scale(0.100000,-0.100000)"
fill="#000000" stroke="none">
<path d="M2675 8638 c-1470 -2392 -1998 -3246 -2066 -3342 -263 -376 -447
-812 -538 -1276 -46 -233 -55 -342 -55 -640 0 -297 10 -415 55 -645 169 -852
647 -1595 1354 -2104 463 -333 1003 -540 1600 -612 161 -20 605 -17 769 4 676
90 1255 341 1766 766 105 87 317 299 408 406 431 512 684 1087 778 1770 26
184 26 646 0 830 -60 437 -185 825 -384 1190 -65 121 -191 320 -242 385 -15
19 -634 1021 -1374 2225 -741 1205 -1350 2191 -1354 2193 -5 1 -327 -516 -717
-1150z m899 -906 c143 -253 317 -529 859 -1367 l680 -1050 116 -120 c64 -66
146 -158 184 -205 508 -637 685 -1464 483 -2256 -81 -317 -232 -632 -438 -909
-100 -135 -367 -403 -498 -502 -376 -281 -780 -446 -1241 -509 -168 -23 -490
-23 -658 0 -811 110 -1512 579 -1916 1281 -160 278 -265 583 -316 916 -26 170
-31 513 -11 669 17 128 55 315 87 424 108 374 326 759 580 1026 47 48 275 394
897 1355 459 710 873 1352 919 1427 46 76 86 138 89 138 3 0 86 -143 184 -318z"/>
<path d="M2400 4754 c-193 -51 -346 -204 -404 -404 -24 -84 -36 -239 -26 -339
23 -218 132 -391 302 -477 155 -78 412 -70 566 18 126 72 230 215 274 375 30
110 30 325 0 434 -56 208 -177 338 -362 388 -90 25 -265 28 -350 5z m307 -220
c114 -59 171 -175 180 -369 8 -183 -28 -307 -117 -396 -58 -58 -117 -79 -224
-79 -161 0 -260 82 -312 255 -22 74 -25 255 -5 335 48 193 172 295 349 286 56
-2 85 -10 129 -32z"/>
<path d="M3164 3489 c-439 -689 -803 -1258 -807 -1266 -7 -11 14 -13 129 -11
l137 3 803 1259 c442 693 804 1261 804 1263 0 2 -60 3 -133 3 l-133 0 -800
-1251z"/>
<path d="M3920 3474 c-205 -44 -366 -208 -427 -434 -14 -50 -18 -102 -17 -225
0 -146 2 -167 27 -242 64 -193 205 -325 394 -369 99 -23 255 -15 350 18 178
63 314 217 369 418 26 93 26 337 0 435 -42 160 -142 292 -266 353 -120 59
-288 77 -430 46z m290 -230 c122 -66 180 -194 180 -399 0 -204 -63 -345 -182
-411 -49 -27 -61 -29 -153 -29 -85 0 -106 3 -142 23 -135 72 -193 194 -193
407 0 240 77 376 245 432 66 22 183 11 245 -23z"/>
</g>
</svg>
