<?xml version="1.0" encoding="UTF-8" standalone="no"?>
<svg
   xmlns:dc="http://purl.org/dc/elements/1.1/"
   xmlns:cc="http://creativecommons.org/ns#"
   xmlns:rdf="http://www.w3.org/1999/02/22-rdf-syntax-ns#"
   xmlns:svg="http://www.w3.org/2000/svg"
   xmlns="http://www.w3.org/2000/svg"
   id="svg46"
   xml:space="preserve"
   enable-background="new 0 0 200 200"
   viewBox="0 0 200 200"
   y="0px"
   x="0px"
   version="1.1"><metadata
     id="metadata52"><rdf:RDF><cc:Work
         rdf:about=""><dc:format>image/svg+xml</dc:format><dc:type
           rdf:resource="http://purl.org/dc/dcmitype/StillImage" /></cc:Work></rdf:RDF></metadata><defs
     id="defs50" /><g
     id="sun" /><g
     id="clear-night" /><g
     id="mostly-sunny" /><g
     id="mostly-clear-night" /><g
     id="fog" /><g
     id="wind" /><g
     id="cloudy" /><g
     id="partly-cloudy" /><g
     id="partly-cloudy-night" /><g
     id="mostly-cloudy" /><g
     id="mostly-cloudy-night" /><g
     id="default" /><g
     id="light-rain"><g
       id="g24"><g
         id="g16"><path
           id="path14"
           d="M197.9,67.2c-4.7-17.5-22.7-28-40.2-23.4c0,0-1.3,0.3-3.5,0.9c-5.6-20.8-24.6-36.2-47.2-36.2     c-24.5,0-44.8,18.1-48.3,41.6c-0.8-0.2-1.3-0.3-1.3-0.3c-14.8-3.8-30,5-33.9,19.8c-0.9,3.5-1.1,7-0.8,10.4c-7.4,2-12,3.2-12,3.2     c-7,1.9-11.1,9-9.2,16c1.6,6.1,7.3,10,13.4,9.7h150.3c0,0,6.2-0.3,9.4-1.1C192.1,102.9,202.6,84.8,197.9,67.2z"
           fill="#ABABAB" /></g><g
         id="g22"><path
           id="path18"
           d="M124.7,121.1c-1-0.2-2,0.2-2.5,1l0,0l-34.8,53.7c-0.6,0.9-1.1,1.8-1.4,2.9c-1.6,5.4,2,11,8.1,12.4     c6,1.4,12.2-1.7,13.9-7.1h0l8.4-27.9c0,0,0-0.1,0-0.1l0,0l9.8-32.5l0-0.2l0,0C126.5,122.5,125.8,121.4,124.7,121.1z"
           fill="#6EC4E9" /><path
           id="path20"
           d="M98,123.3c0.4-0.9-0.2-1.9-1.2-2.2c-0.9-0.3-1.9,0-2.3,0.7h0l-19.4,24.8c-0.4,0.5-0.7,1-1,1.6     c-1.2,3,0.6,6.4,4,7.5c3.4,1.1,7-0.4,8.3-3.3h0l11.5-28.9L98,123.3L98,123.3z"
           fill="#6EC4E9" /></g></g></g><g
     id="rain" /><g
     id="heavy-rain" /><g
     id="scattered-showers-night" /><g
     id="isolated-t-storms" /><g
     id="scattered-t-storms" /><g
     id="scattered-t-storms-night" /><g
     id="strong-t-storms" /><g
     id="flurries" /><g
     id="snow" /><g
     id="heavy-snow" /><g
     id="blowing-snow" /><g
     id="scattered-snow" /><g
     id="scattered-snow-night" /><g
     id="freezing-drizzle" /><g
     id="freezing-rain" /><g
     id="wintry-mix" /><g
     id="sleet" /><g
     id="tornado" /><g
     id="hurricane" /></svg>